<svg width="80" height="80" viewBox="0 0 80 80" fill="none" xmlns="http://www.w3.org/2000/svg">
<path d="M40 53.3334C47.3638 53.3334 53.3333 47.3639 53.3333 40.0001C53.3333 32.6363 47.3638 26.6667 40 26.6667C32.6362 26.6667 26.6666 32.6363 26.6666 40.0001C26.6666 47.3639 32.6362 53.3334 40 53.3334Z" fill="#BC1F4E"/>
<path d="M43.3333 13.5634V6.66675H36.6666V13.5634C30.801 14.3124 25.3499 16.9873 21.1685 21.1686C16.9872 25.35 14.3122 30.8011 13.5633 36.6667H6.66663V43.3334H13.5633C14.3111 49.1995 16.9857 54.6512 21.1673 58.8328C25.3488 63.0143 30.8005 65.6889 36.6666 66.4367V73.3334H43.3333V66.4367C49.1996 65.6895 54.6516 63.015 58.8333 58.8334C63.0149 54.6517 65.6893 49.1997 66.4366 43.3334H73.3333V36.6667H66.4366C65.6888 30.8006 63.0142 25.3489 58.8326 21.1674C54.6511 16.9859 49.1994 14.3113 43.3333 13.5634ZM40 60.0001C28.97 60.0001 20 51.0301 20 40.0001C20 28.9701 28.97 20.0001 40 20.0001C51.03 20.0001 60 28.9701 60 40.0001C60 51.0301 51.03 60.0001 40 60.0001Z" fill="#BC1F4E"/>
</svg>
