<svg width="50" height="50" viewBox="0 0 50 50" fill="none" xmlns="http://www.w3.org/2000/svg">
<path d="M25.4646 24.2521L25 24.7104L24.5333 24.2521C23.6662 23.396 22.4966 22.916 21.2781 22.916C20.0595 22.916 18.89 23.396 18.0229 24.2521C17.5925 24.6661 17.2501 25.1628 17.0163 25.7123C16.7824 26.2618 16.6619 26.8528 16.6619 27.45C16.6619 28.0472 16.7824 28.6383 17.0163 29.1878C17.2501 29.7373 17.5925 30.2339 18.0229 30.6479L25 37.5L31.9771 30.6479C32.4074 30.2339 32.7498 29.7373 32.9837 29.1878C33.2175 28.6383 33.3381 28.0472 33.3381 27.45C33.3381 26.8528 33.2175 26.2618 32.9837 25.7123C32.7498 25.1628 32.4074 24.6661 31.9771 24.2521C31.1095 23.3959 29.9397 22.9158 28.7208 22.9158C27.5019 22.9158 26.3321 23.3959 25.4646 24.2521Z" fill="#752995"/>
<path d="M45.2229 23.5271L26.4729 4.7771C26.2796 4.58346 26.05 4.42984 25.7973 4.32502C25.5445 4.22021 25.2736 4.16626 25 4.16626C24.7264 4.16626 24.4555 4.22021 24.2027 4.32502C23.95 4.42984 23.7204 4.58346 23.5271 4.7771L4.77709 23.5271C4.48582 23.8185 4.28747 24.1896 4.20712 24.5937C4.12677 24.9978 4.16803 25.4166 4.32567 25.7972C4.48332 26.1778 4.75028 26.5032 5.0928 26.7321C5.43532 26.961 5.83802 27.0833 6.25 27.0833H8.33334V41.6667C8.33334 43.9646 10.2021 45.8333 12.5 45.8333H37.5C39.7979 45.8333 41.6667 43.9646 41.6667 41.6667V27.0833H43.75C44.162 27.0833 44.5647 26.961 44.9072 26.7321C45.2497 26.5032 45.5167 26.1778 45.6743 25.7972C45.832 25.4166 45.8732 24.9978 45.7929 24.5937C45.7125 24.1896 45.5142 23.8185 45.2229 23.5271ZM37.5021 41.6667H12.5V21.6979L25 9.19793L37.5 21.6979V31.25L37.5021 41.6667Z" fill="#752995"/>
</svg>
