<svg width="60" height="60" viewBox="0 0 60 60" fill="none" xmlns="http://www.w3.org/2000/svg">
<path d="M29.9975 18.4424C26.9316 18.4424 23.9913 19.6603 21.8233 21.8282C19.6554 23.9962 18.4375 26.9365 18.4375 30.0024C18.4375 33.0683 19.6554 36.0086 21.8233 38.1765C23.9913 40.3445 26.9316 41.5624 29.9975 41.5624C33.0634 41.5624 36.0037 40.3445 38.1717 38.1765C40.3396 36.0086 41.5575 33.0683 41.5575 30.0024C41.5575 26.9365 40.3396 23.9962 38.1717 21.8282C36.0037 19.6603 33.0634 18.4424 29.9975 18.4424ZM29.9975 37.5099C28.0057 37.5099 26.0955 36.7187 24.6871 35.3103C23.2787 33.9019 22.4875 31.9917 22.4875 29.9999C22.4875 28.0081 23.2787 26.0979 24.6871 24.6895C26.0955 23.2811 28.0057 22.4899 29.9975 22.4899C31.9893 22.4899 33.8995 23.2811 35.3079 24.6895C36.7163 26.0979 37.5075 28.0081 37.5075 29.9999C37.5075 31.9917 36.7163 33.9019 35.3079 35.3103C33.8995 36.7187 31.9893 37.5099 29.9975 37.5099Z" fill="#752995"/>
<path d="M42.0151 20.7125C43.5035 20.7125 44.7101 19.5059 44.7101 18.0175C44.7101 16.5291 43.5035 15.3225 42.0151 15.3225C40.5267 15.3225 39.3201 16.5291 39.3201 18.0175C39.3201 19.5059 40.5267 20.7125 42.0151 20.7125Z" fill="#752995"/>
<path d="M51.3324 15.2775C50.7536 13.7829 49.8692 12.4257 48.7357 11.2926C47.6022 10.1595 46.2447 9.27563 44.7499 8.69745C43.0007 8.04084 41.1528 7.6858 39.2849 7.64745C36.8774 7.54245 36.1149 7.51245 30.0099 7.51245C23.9049 7.51245 23.1224 7.51245 20.7349 7.64745C18.8684 7.68384 17.0218 8.03895 15.2749 8.69745C13.7797 9.27495 12.4218 10.1586 11.2882 11.2918C10.1546 12.4249 9.27045 13.7825 8.69238 15.2775C8.03564 17.0265 7.68142 18.8745 7.64488 20.7425C7.53738 23.1475 7.50488 23.91 7.50488 30.0175C7.50488 36.1224 7.50488 36.9 7.64488 39.2924C7.68238 41.1625 8.03488 43.0075 8.69238 44.7599C9.27208 46.2543 10.1571 47.6114 11.291 48.7444C12.4248 49.8774 13.7825 50.7614 15.2774 51.3399C17.021 52.0229 18.8683 52.4034 20.7399 52.465C23.1474 52.57 23.9099 52.6024 30.0149 52.6024C36.1199 52.6024 36.9024 52.6024 39.2899 52.465C41.1576 52.427 43.0055 52.0728 44.7549 51.4174C46.2493 50.8379 47.6064 49.9533 48.7398 48.8199C49.8732 47.6865 50.7579 46.3293 51.3374 44.8349C51.9949 43.0849 52.3474 41.24 52.3849 39.37C52.4924 36.965 52.5249 36.2025 52.5249 30.095C52.5249 23.9875 52.5249 23.2125 52.3849 20.82C52.3558 18.9256 51.9997 17.0506 51.3324 15.2775ZM48.2874 39.1075C48.2713 40.5482 48.0083 41.9755 47.5099 43.3274C47.1344 44.2996 46.5597 45.1825 45.8226 45.9191C45.0854 46.6558 44.2023 47.2301 43.2299 47.6049C41.8929 48.1011 40.4808 48.3641 39.0549 48.3825C36.6799 48.4925 36.0099 48.52 29.9199 48.52C23.8249 48.52 23.2024 48.52 20.7824 48.3825C19.3572 48.365 17.9457 48.102 16.6099 47.6049C15.6341 47.2324 14.7474 46.6592 14.0071 45.9223C13.2668 45.1855 12.6895 44.3015 12.3124 43.3274C11.821 41.9901 11.5582 40.5796 11.5349 39.1549C11.4274 36.78 11.4024 36.11 11.4024 30.02C11.4024 23.9275 11.4024 23.3049 11.5349 20.8825C11.551 19.4425 11.814 18.016 12.3124 16.665C13.0749 14.6925 14.6374 13.14 16.6099 12.385C17.9464 11.8903 19.3574 11.6274 20.7824 11.6075C23.1599 11.5 23.8274 11.47 29.9199 11.47C36.0124 11.47 36.6374 11.47 39.0549 11.6075C40.4809 11.6246 41.8933 11.8876 43.2299 12.385C44.2022 12.7606 45.0852 13.3355 45.8223 14.0725C46.5594 14.8096 47.1342 15.6926 47.5099 16.665C48.0013 18.0023 48.2641 19.4129 48.2874 20.8375C48.3949 23.215 48.4224 23.8825 48.4224 29.975C48.4224 36.065 48.4224 36.72 48.3149 39.11H48.2874V39.1075Z" fill="#752995"/>
</svg>
