<svg width="60" height="60" viewBox="0 0 60 60" fill="none" xmlns="http://www.w3.org/2000/svg">
<path d="M29.975 5C16.18 5 5 16.1825 5 29.975C5 40.555 11.5825 49.6 20.875 53.24C20.655 51.265 20.46 48.225 20.96 46.07C21.415 44.12 23.89 33.655 23.89 33.655C23.89 33.655 23.1425 32.1575 23.1425 29.945C23.1425 26.475 25.155 23.8825 27.6625 23.8825C29.795 23.8825 30.8225 25.4825 30.8225 27.4C30.8225 29.545 29.4575 32.7475 28.755 35.7175C28.1675 38.2025 30.0025 40.23 32.4525 40.23C36.89 40.23 40.305 35.55 40.305 28.7925C40.305 22.8125 36.0075 18.6325 29.8725 18.6325C22.765 18.6325 18.5925 23.9625 18.5925 29.47C18.5925 31.615 19.42 33.9175 20.4525 35.17C20.5402 35.2643 20.6022 35.3797 20.6324 35.5049C20.6626 35.6301 20.6601 35.761 20.625 35.885C20.435 36.6725 20.0125 38.37 19.9325 38.7175C19.8225 39.175 19.57 39.2725 19.095 39.0525C15.9775 37.6 14.0275 33.04 14.0275 29.375C14.0275 21.4975 19.75 14.2625 30.53 14.2625C39.195 14.2625 45.9275 20.435 45.9275 28.6875C45.9275 37.2975 40.5 44.22 32.9675 44.22C30.435 44.22 28.0575 42.9075 27.2425 41.355L25.685 47.29C25.1225 49.46 23.6 52.18 22.5825 53.84C24.9778 54.5795 27.4707 54.9545 29.9775 54.9525C43.77 54.9525 54.9525 43.77 54.9525 29.9775C54.9525 16.185 43.7675 5 29.975 5Z" fill="#752995"/>
</svg>
