<svg width="50" height="50" viewBox="0 0 50 50" fill="none" xmlns="http://www.w3.org/2000/svg">
<path d="M41.6667 22.9147H45.8333C45.8333 12.2272 37.7646 4.16675 27.0625 4.16675V8.33342C35.525 8.33342 41.6667 14.4647 41.6667 22.9147Z" fill="#752995"/>
<path d="M27.0833 16.6666C31.4646 16.6666 33.3333 18.5353 33.3333 22.9166H37.5C37.5 16.1978 33.8021 12.4999 27.0833 12.4999V16.6666ZM34.2125 28.0062C33.8122 27.6423 33.2861 27.4483 32.7454 27.465C32.2047 27.4817 31.6916 27.7079 31.3146 28.0958L26.3291 33.2228C25.1291 32.9937 22.7166 32.2416 20.2333 29.7645C17.75 27.2791 16.9979 24.8603 16.775 23.6687L21.8979 18.6812C22.2863 18.3044 22.5128 17.7912 22.5295 17.2504C22.5462 16.7095 22.3518 16.1833 21.9875 15.7833L14.2896 7.31868C13.9251 6.91734 13.4185 6.6739 12.8774 6.64005C12.3363 6.60621 11.8033 6.78463 11.3916 7.13743L6.87081 11.0145C6.51063 11.376 6.29564 11.8571 6.26664 12.3666C6.23539 12.8874 5.63956 25.2249 15.2062 34.7958C23.5521 43.1395 34.0062 43.7499 36.8854 43.7499C37.3062 43.7499 37.5646 43.7374 37.6333 43.7333C38.1427 43.7047 38.6236 43.4888 38.9833 43.127L42.8583 38.6041C43.2114 38.1927 43.3901 37.6599 43.3567 37.1188C43.3232 36.5777 43.0802 36.071 42.6791 35.7062L34.2125 28.0062Z" fill="#752995"/>
</svg>
