<svg width="26" height="24" viewBox="0 0 26 24" fill="none" xmlns="http://www.w3.org/2000/svg">
<path d="M13.8017 2.32C13.7001 2.21688 13.5764 2.13449 13.4383 2.07811C13.3003 2.02173 13.151 1.99261 13 1.99261C12.849 1.99261 12.6997 2.02173 12.5617 2.07811C12.4236 2.13449 12.2999 2.21688 12.1983 2.32L2.44833 12.32C2.30456 12.4631 2.20929 12.6419 2.17426 12.8343C2.13923 13.0268 2.16598 13.2245 2.2512 13.4031C2.33643 13.5817 2.47641 13.7334 2.65388 13.8395C2.83136 13.9455 3.03858 14.0013 3.25 14H5.41666V21C5.41666 21.2652 5.5308 21.5196 5.73397 21.7071C5.93713 21.8946 6.21268 22 6.5 22H19.5C19.7873 22 20.0629 21.8946 20.266 21.7071C20.4692 21.5196 20.5833 21.2652 20.5833 21V14H22.75C23.0373 14 23.3129 13.8946 23.516 13.7071C23.7192 13.5196 23.8333 13.2652 23.8333 13C23.8353 12.7487 23.7348 12.5059 23.5517 12.32L13.8017 2.32Z" fill="#752995"/>
<g clip-path="url(#clip0_240_615)">
<g clip-path="url(#clip1_240_615)">
<path d="M8.79886 12.1088C8.72245 12.2112 8.67677 12.3125 8.64763 12.4414C8.63058 12.5159 8.61865 12.6196 8.62524 12.633C8.62719 12.6366 8.62645 12.641 8.62394 12.644C8.62042 12.6482 8.62049 12.6693 8.62325 12.7439C8.62336 12.752 8.62989 12.7985 8.6376 12.8459C8.66725 13.0348 8.74326 13.2252 8.86664 13.4232C8.90841 13.4903 8.95169 13.5557 8.96315 13.5681C8.97411 13.581 8.98945 13.6005 8.99696 13.6117C9.00446 13.6228 9.02823 13.6512 9.04929 13.6734C9.07094 13.6961 9.10346 13.7306 9.12166 13.7515C9.26254 13.9074 9.48516 14.0808 9.68019 14.1855C9.72283 14.2092 9.77178 14.236 9.78851 14.2456C9.84562 14.2781 10.0343 14.3515 10.151 14.3864C10.2463 14.4148 10.4303 14.4513 10.5038 14.456C10.5929 14.4623 10.7436 14.4616 10.8409 14.4535C10.8885 14.4501 10.9828 14.4326 10.9878 14.4267C10.9898 14.4243 11.0086 14.4185 11.0292 14.4142C11.073 14.4047 11.0969 14.3951 11.1972 14.3493C11.2386 14.3308 11.2789 14.3125 11.2864 14.3095C11.3236 14.2936 11.4733 14.1716 11.5135 14.125C11.5366 14.0977 11.6025 14.0018 11.6179 13.9741C11.6383 13.9346 11.7029 13.7683 11.702 13.7565C11.7017 13.7533 11.703 13.7423 11.7054 13.7312C11.7079 13.7212 11.7109 13.7035 11.7133 13.6924C11.7158 13.6824 11.7171 13.6714 11.7162 13.6677C11.716 13.6645 11.7179 13.648 11.7209 13.6303C11.7341 13.5498 11.7236 13.3665 11.702 13.2967C11.6983 13.2846 11.695 13.2649 11.6946 13.2524C11.6936 13.2336 11.68 13.1884 11.6487 13.1006C11.6187 13.0159 11.6044 12.9821 11.5835 12.942C11.5698 12.9158 11.5522 12.8814 11.5442 12.8648C11.5363 12.8483 11.5228 12.8243 11.5151 12.811C11.5074 12.7977 11.4972 12.7803 11.4927 12.7727C11.4882 12.765 11.4725 12.7412 11.4581 12.7194C11.4432 12.6982 11.4225 12.6673 11.4113 12.6511C11.3881 12.6161 11.3122 12.5222 11.2999 12.5121C11.2946 12.5089 11.2819 12.4945 11.2715 12.4809C11.2305 12.4305 11.2208 12.4196 11.1701 12.3712C11.1165 12.3205 10.8474 12.1032 10.8003 12.0729C10.6366 11.9676 10.4455 11.8772 10.2252 11.8001C10.1533 11.7746 9.92314 11.7256 9.85848 11.7222C9.84353 11.721 9.829 11.7182 9.82547 11.7153C9.82252 11.7129 9.81421 11.7122 9.80834 11.7144C9.80247 11.7167 9.78097 11.7162 9.76098 11.714C9.71328 11.7093 9.54161 11.716 9.48614 11.724C9.40844 11.736 9.24561 11.777 9.23658 11.7877C9.23457 11.7901 9.22979 11.7922 9.22584 11.791C9.21685 11.7887 9.07644 11.855 9.06431 11.8682C9.0628 11.87 9.05693 11.8723 9.05106 11.8745C9.0457 11.8762 9.02743 11.8884 9.01094 11.9021C8.99495 11.9151 8.96187 11.9414 8.93699 11.9603C8.88264 12.0024 8.85779 12.0283 8.79886 12.1088Z" fill="white"/>
<path d="M11.1526 10.2062C11.0916 10.295 11.0868 10.3042 11.0397 10.4155C10.9958 10.5182 10.9519 10.6953 10.9423 10.807C10.9407 10.8288 10.9376 10.8573 10.9363 10.8694C10.9345 10.881 10.9344 10.9059 10.9348 10.9243C10.9352 10.9427 10.9348 10.9726 10.9335 10.9895C10.9289 11.0551 10.9538 11.2873 10.9763 11.3879C10.9892 11.4457 11.0002 11.4998 11.0016 11.51C11.0029 11.5191 11.0061 11.5317 11.0099 11.5378C11.0131 11.5435 11.0226 11.5712 11.0304 11.5997C11.05 11.6649 11.0629 11.7025 11.0794 11.742C11.0868 11.7591 11.0978 11.7862 11.1035 11.8018C11.1468 11.9214 11.2983 12.1956 11.361 12.2687C11.3713 12.2811 11.3845 12.3009 11.3892 12.3118C11.3974 12.3315 11.4325 12.3772 11.4723 12.4196C11.4837 12.432 11.5038 12.4553 11.5178 12.4718C11.5312 12.4877 11.5595 12.5178 11.5809 12.5383C11.6013 12.5589 11.6253 12.5835 11.6344 12.5929C11.6614 12.6209 11.853 12.7781 11.8907 12.8017C11.9099 12.8144 11.9406 12.8334 11.9586 12.845C12.0613 12.9106 12.219 12.9829 12.3174 13.0089C12.3398 13.0141 12.3709 13.0233 12.3856 13.0283C12.4003 13.0332 12.4198 13.0371 12.4276 13.0374C12.4358 13.0371 12.4597 13.0405 12.4805 13.0454C12.5196 13.0532 12.5607 13.0575 12.5952 13.0555C12.6062 13.0555 12.6173 13.0565 12.6196 13.0584C12.6302 13.067 12.8652 13.0336 12.9144 13.0164C12.9305 13.0104 12.9461 13.0061 12.9499 13.0062C12.9719 13.006 13.1227 12.9251 13.1613 12.8923C13.168 12.8867 13.1984 12.8612 13.2283 12.8364C13.3772 12.7128 13.4985 12.4853 13.5542 12.2234C13.5626 12.1841 13.5777 12.0518 13.5762 12.0264C13.5758 12.0151 13.5781 12.0029 13.5816 11.9988C13.5852 11.9946 13.5863 11.9885 13.585 11.9854C13.583 11.9818 13.5813 11.9543 13.5805 11.9235C13.5796 11.7913 13.5634 11.6184 13.5473 11.5561C13.5372 11.5197 13.5233 11.4643 13.5164 11.4335C13.509 11.4034 13.4958 11.3555 13.4875 11.3276C13.4787 11.3003 13.4652 11.2573 13.4584 11.2336C13.4298 11.139 13.3842 11.0316 13.3258 10.9228C13.3142 10.9012 13.3012 10.8766 13.2967 10.8689C13.2707 10.8196 13.2342 10.7567 13.2111 10.7228C13.1961 10.7016 13.1816 10.6788 13.1794 10.6719C13.1767 10.6657 13.1488 10.6269 13.1169 10.5869C13.0856 10.5463 13.0426 10.4912 13.0222 10.4635C12.9557 10.3761 12.8459 10.2717 12.7025 10.1588C12.572 10.0565 12.5406 10.0349 12.4926 10.0128C12.4789 10.0067 12.4553 9.99454 12.4408 9.98576C12.3253 9.91769 12.0867 9.84578 11.9479 9.8371C11.8743 9.83238 11.6652 9.85172 11.6317 9.86664C11.619 9.87232 11.5975 9.87892 11.5833 9.88042C11.5697 9.88239 11.5595 9.8851 11.5613 9.88654C11.563 9.88798 11.5486 9.89329 11.5303 9.89848C11.5115 9.90425 11.4945 9.91147 11.4925 9.91385C11.488 9.91921 11.4442 9.9428 11.4187 9.95309C11.4107 9.95664 11.3993 9.96543 11.3928 9.97317C11.3863 9.98091 11.3769 9.98732 11.3714 9.98789C11.3605 9.98904 11.2936 10.046 11.2324 10.1056C11.2141 10.1238 11.1782 10.1688 11.1526 10.2062Z" fill="white"/>
<path d="M8.62293 15.048C8.62328 15.0523 8.62204 15.0573 8.62053 15.0591C8.5825 15.1125 8.52343 15.2521 8.5158 15.3071C8.51532 15.3148 8.51242 15.3264 8.51076 15.3331C8.50851 15.3393 8.50319 15.3822 8.49855 15.4266C8.49399 15.4721 8.48868 15.5149 8.48719 15.5238C8.48562 15.5315 8.48645 15.5553 8.48811 15.5757C8.48978 15.5962 8.49017 15.6146 8.48816 15.6169C8.48616 15.6193 8.48679 15.6339 8.49028 15.6498C8.49369 15.6646 8.4979 15.6962 8.49965 15.7177C8.50149 15.7403 8.50474 15.76 8.50769 15.7624C8.51005 15.7643 8.51339 15.7851 8.51531 15.8088C8.51773 15.8318 8.52167 15.8531 8.52411 15.8561C8.52706 15.8585 8.53317 15.8795 8.53668 15.9025C8.54129 15.9253 8.54655 15.9427 8.54806 15.9409C8.55006 15.9385 8.55421 15.9489 8.55812 15.9631C8.56153 15.978 8.56644 15.991 8.5682 15.9924C8.56997 15.9939 8.57827 16.0147 8.58682 16.0387C8.61614 16.1219 8.67941 16.2437 8.76861 16.3867C8.79646 16.4315 8.93935 16.6122 8.9802 16.6545C8.99638 16.6707 9.01558 16.6903 9.02283 16.6982C9.07708 16.7565 9.14065 16.8143 9.21902 16.8782C9.41397 17.0361 9.58238 17.1381 9.79037 17.2263C9.83257 17.2446 9.87201 17.2627 9.87731 17.267C9.8837 17.2712 9.88992 17.2733 9.89193 17.2709C9.89394 17.2685 9.90638 17.2726 9.92017 17.2798C9.94607 17.2939 9.94666 17.2944 10.0835 17.3326C10.2174 17.3694 10.2745 17.3818 10.3389 17.3881C10.3715 17.3906 10.4011 17.3956 10.4046 17.3985C10.4082 17.4014 10.4198 17.4029 10.4296 17.4007C10.4394 17.3997 10.4741 17.3998 10.5062 17.4019C10.6012 17.4071 10.7698 17.3958 10.8536 17.3777C10.8963 17.3683 10.9417 17.3592 10.9542 17.3563C10.9667 17.3544 10.9779 17.3505 10.9799 17.3481C10.9814 17.3464 10.9969 17.3409 11.0142 17.3369C11.0315 17.3329 11.0475 17.3269 11.0505 17.3233C11.0535 17.3198 11.0584 17.3187 11.0619 17.3216C11.0649 17.324 11.0713 17.3222 11.0754 17.3175C11.0799 17.3121 11.0984 17.3031 11.1177 17.2967C11.137 17.2904 11.1545 17.2826 11.157 17.2796C11.159 17.2772 11.178 17.2665 11.1986 17.2562C11.2186 17.2454 11.2449 17.2307 11.2553 17.2231C11.2668 17.2154 11.2917 17.1976 11.3121 17.1841C11.3845 17.1336 11.4913 17.0128 11.5463 16.9181C11.6061 16.8141 11.653 16.6536 11.6625 16.5197C11.665 16.4826 11.6696 16.4512 11.6729 16.4508C11.6761 16.4505 11.6751 16.4446 11.6712 16.4375C11.6668 16.4309 11.6639 16.4084 11.665 16.3882C11.6662 16.349 11.6497 16.2331 11.6314 16.157C11.6254 16.131 11.6195 16.1062 11.6191 16.1008C11.6176 16.0955 11.616 16.0903 11.6143 16.0888C11.6108 16.087 11.594 16.0291 11.5942 16.0183C11.5937 16.0118 11.5769 15.968 11.5547 15.9178C11.5447 15.8966 11.5376 15.8767 11.5378 15.8729C11.5376 15.8697 11.535 15.8645 11.532 15.8621C11.529 15.8587 11.52 15.8433 11.5121 15.8268C11.5046 15.8097 11.4921 15.7845 11.485 15.7706C11.4778 15.7567 11.4692 15.7397 11.4665 15.7335C11.4633 15.7279 11.4431 15.6953 11.4217 15.6628C11.3998 15.6299 11.3806 15.5972 11.3773 15.5905C11.3704 15.5728 11.2188 15.386 11.1638 15.3262C11.0389 15.1902 10.8456 15.0327 10.6718 14.9252C10.5089 14.8237 10.2583 14.7118 10.1071 14.6719C10.0818 14.6653 10.0475 14.6565 10.0323 14.6521C9.96699 14.6341 9.87794 14.6147 9.85409 14.6124C9.83973 14.6117 9.83015 14.6089 9.83266 14.6059C9.83466 14.6036 9.82971 14.6035 9.82166 14.606C9.81369 14.6096 9.80379 14.6095 9.80025 14.6066C9.79672 14.6038 9.76219 14.5987 9.72289 14.5958C9.65034 14.5899 9.63934 14.59 9.60803 14.5906C9.59871 14.591 9.56849 14.5915 9.54154 14.5916C9.44574 14.5909 9.29393 14.6118 9.2161 14.6357C9.18817 14.6441 9.16275 14.6495 9.16039 14.6475C9.15744 14.6451 9.15207 14.6468 9.14806 14.6515C9.14405 14.6563 9.13767 14.6591 9.13431 14.6584C9.13145 14.6571 9.08727 14.6753 9.03739 14.6979C8.94081 14.7417 8.84018 14.8033 8.79842 14.8446C8.75155 14.8907 8.62232 15.0405 8.62293 15.048Z" fill="white"/>
<path d="M14.0487 10.583C14.043 10.5945 14.0263 10.626 14.0109 10.6526C13.9583 10.7444 13.9008 10.9364 13.8879 11.0685C13.8838 11.1063 13.8773 11.1412 13.8737 11.1454C13.8702 11.1495 13.8713 11.1564 13.8761 11.1603C13.8808 11.1641 13.8829 11.1699 13.8804 11.1728C13.8774 11.1764 13.8755 11.2081 13.8752 11.2439C13.8753 11.2791 13.8739 11.3102 13.8724 11.312C13.8689 11.3161 13.8785 11.4274 13.8891 11.5103C13.8935 11.544 13.8943 11.5737 13.8917 11.5756C13.888 11.5777 13.8889 11.5824 13.8936 11.5863C13.8983 11.5901 13.9053 11.6149 13.9097 11.6415C13.913 11.6683 13.9185 11.6959 13.9208 11.7038C13.9328 11.7427 13.9449 11.8038 13.9414 11.8079C13.9394 11.8103 13.9403 11.8151 13.9438 11.818C13.9503 11.8232 13.995 11.9671 13.9954 11.9855C13.9953 11.9915 14.0079 12.0238 14.0221 12.0564C14.0368 12.0885 14.0528 12.1297 14.0576 12.1476C14.0628 12.1649 14.0691 12.1811 14.0726 12.184C14.0756 12.1864 14.0959 12.2271 14.1174 12.2747C14.1643 12.3782 14.2015 12.4497 14.2133 12.4593C14.218 12.4631 14.2195 12.4684 14.217 12.4713C14.215 12.4737 14.2209 12.4856 14.23 12.496C14.2397 12.5069 14.2535 12.5271 14.2601 12.5405C14.2812 12.5839 14.3008 12.6149 14.3646 12.703C14.4569 12.8305 14.5389 12.9314 14.6218 13.017C14.7647 13.1646 14.9619 13.3233 15.1109 13.4096C15.1403 13.4265 15.1657 13.4412 15.1675 13.4426C15.1698 13.4435 15.1859 13.4526 15.2044 13.4637C15.2223 13.4743 15.2459 13.4864 15.2566 13.4902C15.2674 13.4939 15.3157 13.5132 15.3652 13.5324C15.5676 13.613 15.7911 13.6345 15.98 13.5896C16.0372 13.576 16.1553 13.5326 16.1648 13.5213C16.1683 13.5172 16.1867 13.506 16.2062 13.4958C16.2696 13.4631 16.3106 13.4262 16.3833 13.3389C16.4804 13.2202 16.5298 13.1249 16.5768 12.9644C16.5845 12.9375 16.5908 12.9135 16.5905 12.9103C16.5903 12.9071 16.595 12.8838 16.6006 12.8583C16.6056 12.8323 16.6138 12.7907 16.6168 12.766C16.6208 12.7412 16.6251 12.7196 16.6277 12.7177C16.6297 12.7153 16.6307 12.7071 16.6289 12.6986C16.6242 12.6747 16.6273 12.4894 16.6323 12.4835C16.6348 12.4805 16.6355 12.475 16.6335 12.4714C16.6316 12.4678 16.6264 12.4375 16.6226 12.4042C16.612 12.3083 16.5966 12.2063 16.5867 12.1662C16.5818 12.1461 16.576 12.1153 16.5741 12.0986C16.5721 12.081 16.5698 12.066 16.5675 12.0652C16.561 12.0599 16.546 11.9975 16.5496 11.9873C16.5519 11.9811 16.5496 11.9732 16.5443 11.9689C16.5395 11.9651 16.5267 11.9355 16.5169 11.9035C16.4949 11.8353 16.484 11.8034 16.472 11.7775C16.4673 11.7666 16.4641 11.754 16.4647 11.7485C16.4649 11.7436 16.4635 11.7405 16.4615 11.7429C16.4595 11.7452 16.4502 11.7256 16.4409 11.6989C16.4322 11.6727 16.4219 11.6483 16.4178 11.645C16.4143 11.6421 16.4102 11.6328 16.4096 11.6252C16.4071 11.6011 16.2765 11.3491 16.2583 11.3343C16.2524 11.3295 16.2484 11.3212 16.2492 11.3168C16.2504 11.3118 16.2442 11.3027 16.2359 11.2959C16.2283 11.2897 16.2243 11.2814 16.2268 11.2785C16.2298 11.2749 16.2247 11.2668 16.2165 11.26C16.2082 11.2533 16.1984 11.2403 16.1948 11.2303C16.1706 11.1694 15.9259 10.8666 15.8075 10.75C15.7878 10.731 15.7633 10.707 15.7531 10.6967C15.7243 10.6672 15.5551 10.5283 15.5356 10.5184C15.5258 10.5135 15.4921 10.491 15.4599 10.4678C15.4278 10.4447 15.3993 10.4254 15.3965 10.4252C15.3926 10.425 15.3529 10.4037 15.3063 10.3778C15.1599 10.2967 14.9727 10.2345 14.8359 10.2224C14.8109 10.2201 14.7887 10.2171 14.7863 10.2151C14.781 10.2108 14.7026 10.2142 14.629 10.2225C14.5554 10.2308 14.4188 10.2631 14.4088 10.275C14.4053 10.2792 14.3967 10.2822 14.3906 10.2813C14.3844 10.2803 14.3622 10.2913 14.3413 10.3043C14.3203 10.3174 14.2956 10.3314 14.2877 10.336C14.2359 10.3621 14.072 10.5317 14.0487 10.583Z" fill="white"/>
<path d="M12.2069 13.7884C12.2072 13.7916 12.1883 13.8164 12.1658 13.8443C12.1427 13.8716 12.1097 13.919 12.0929 13.9495C12.0755 13.9796 12.0573 14.0119 12.052 14.0216C11.9883 14.1314 11.9328 14.3081 11.916 14.4541C11.9116 14.4876 11.9108 14.5251 11.914 14.5378C11.937 14.6308 11.9544 14.7163 11.9548 14.7347C11.9558 14.7465 11.9584 14.7587 11.9614 14.7611C11.9708 14.7688 12.0237 15.0137 12.0196 15.0315C12.0176 15.0399 12.0199 15.0477 12.0232 15.0485C12.0271 15.0486 12.0342 15.0685 12.0378 15.0925C12.0419 15.1159 12.046 15.1393 12.0475 15.1446C12.0485 15.1494 12.0545 15.1894 12.0608 15.2327C12.0665 15.2765 12.0734 15.3143 12.0764 15.3167C12.0793 15.3191 12.0869 15.3514 12.0927 15.3882C12.099 15.4255 12.1063 15.4676 12.1103 15.4829C12.1268 15.5576 12.1749 15.9061 12.1699 15.912C12.167 15.9167 12.1675 15.9231 12.171 15.926C12.1788 15.9333 12.1938 16.05 12.1882 16.0565C12.1842 16.0613 12.1886 16.095 12.2013 16.1565C12.2068 16.1831 12.2088 16.2078 12.2059 16.2124C12.2024 16.2166 12.2027 16.228 12.2068 16.2373C12.2177 16.2633 12.2221 16.311 12.2146 16.32C12.2111 16.3241 12.211 16.3301 12.2146 16.333C12.2228 16.3397 12.2373 16.4841 12.2302 16.4843C12.2269 16.4846 12.2281 16.4926 12.2328 16.5024C12.2368 16.5118 12.2375 16.5274 12.2345 16.538C12.2315 16.5476 12.2318 16.5579 12.2353 16.5607C12.243 16.567 12.2437 16.6038 12.2367 16.6121C12.2337 16.6157 12.2335 16.6195 12.2364 16.6219C12.2423 16.6267 12.2471 16.6717 12.2508 16.7652C12.2526 16.8078 12.2559 16.8758 12.2576 16.9163C12.2653 17.0651 12.2677 17.1825 12.265 17.1904C12.2637 17.1944 12.2647 17.2132 12.2667 17.232C12.2699 17.2506 12.2702 17.268 12.2682 17.2703C12.2662 17.2727 12.2657 17.2934 12.2664 17.3161C12.2714 17.3904 12.2705 17.4208 12.265 17.4274C12.262 17.431 12.2619 17.4359 12.2654 17.4387C12.2683 17.4411 12.2699 17.4665 12.2694 17.4942C12.2672 17.5427 12.2666 17.6224 12.2675 17.6603C12.2693 17.703 12.2615 17.8854 12.2577 17.9064C12.255 17.9203 12.2555 17.9327 12.2578 17.9346C12.2643 17.9399 12.295 18.0874 12.291 18.0922C12.289 18.0946 12.291 18.0992 12.2946 18.1021C12.2987 18.1055 12.3089 18.1299 12.3171 18.1556C12.3587 18.2889 12.4466 18.4499 12.5458 18.574C12.6377 18.689 12.6987 18.7487 12.8095 18.833C12.9327 18.9263 12.9993 18.9676 13.086 19.0051C13.1225 19.0207 13.1555 19.0346 13.1595 19.0369C13.163 19.0387 13.1698 19.0412 13.1748 19.0423C13.1798 19.0423 13.1934 19.0474 13.2054 19.0532C13.2174 19.0579 13.2288 19.0632 13.2311 19.064C13.2333 19.0649 13.2513 19.0695 13.2716 19.075C13.312 19.0848 13.338 19.094 13.3406 19.098C13.3413 19.0996 13.3457 19.1002 13.35 19.0987C13.3538 19.0977 13.3727 19.1001 13.3911 19.1041C13.4096 19.1081 13.4514 19.114 13.4841 19.1176C13.5174 19.1206 13.5469 19.1256 13.5511 19.129C13.5552 19.1324 13.5607 19.1329 13.5627 19.1305C13.5653 19.1275 13.6031 19.1262 13.6471 19.1259C13.7336 19.1271 13.9247 19.1021 13.9367 19.0878C13.9407 19.083 13.957 19.0802 13.9725 19.0808C13.9885 19.0818 14.0027 19.0803 14.0052 19.0773C14.0092 19.0726 14.0947 19.0408 14.1067 19.0395C14.1263 19.0374 14.3057 18.9437 14.3462 18.9134C14.487 18.8112 14.5978 18.6917 14.7156 18.5166C14.8304 18.345 15.1022 18.0203 15.2176 17.9165C15.2325 17.9035 15.2539 17.8828 15.2655 17.8702C15.3204 17.8145 15.4161 17.7329 15.5336 17.6418C15.5637 17.6192 15.5942 17.5948 15.603 17.5879C15.6215 17.5719 15.7127 17.5096 15.7338 17.4987C15.7423 17.4946 15.781 17.4699 15.8207 17.444C15.8598 17.4177 15.9102 17.3874 15.9319 17.377C15.9541 17.366 15.9804 17.3513 15.9897 17.3438C16.0001 17.3362 16.0107 17.3307 16.0145 17.3309C16.0184 17.331 16.0449 17.3184 16.0728 17.303C16.1254 17.2736 16.4534 17.1252 16.4644 17.1251C16.471 17.1255 16.487 17.1194 16.5456 17.0959C16.5936 17.0768 16.6454 17.0577 16.6525 17.0575C16.6712 17.0566 16.8123 16.9789 16.9057 16.9164C17.0149 16.8447 17.0801 16.7874 17.168 16.6843C17.2565 16.5817 17.2996 16.5164 17.3676 16.3851C17.4213 16.2802 17.479 16.1033 17.4987 15.9808C17.5034 15.9505 17.5089 15.9239 17.5099 15.9227C17.5115 15.9209 17.512 15.9144 17.5126 15.9078C17.5126 15.9008 17.5152 15.8658 17.5178 15.8297C17.5209 15.7931 17.522 15.7327 17.5217 15.6954C17.5203 15.6581 17.5226 15.6248 17.5251 15.6218C17.5276 15.6188 17.5268 15.6021 17.5232 15.5851C17.5202 15.5686 17.5148 15.5361 17.5119 15.5136C17.503 15.4452 17.4831 15.3415 17.4693 15.2942C17.4618 15.27 17.4571 15.2461 17.4586 15.2433C17.4599 15.2393 17.4584 15.2341 17.4554 15.2317C17.4519 15.2288 17.4435 15.2069 17.4354 15.1822C17.408 15.0946 17.3323 14.9355 17.2778 14.854C17.1974 14.7312 17.1691 14.6941 17.1167 14.6383C17.1047 14.6266 17.0919 14.6111 17.0869 14.6041C17.0743 14.5837 17.0457 14.5574 16.9363 14.4632C16.8157 14.361 16.7568 14.32 16.6334 14.2566C16.6029 14.2408 16.5724 14.224 16.5649 14.2199C16.5579 14.2152 16.5465 14.2099 16.5403 14.2078C16.5341 14.2058 16.5198 14.1991 16.5089 14.1943C16.4819 14.1804 16.1927 14.0872 16.1501 14.0787C16.1417 14.0769 16.0899 14.0617 16.0351 14.0442C15.9792 14.0268 15.9268 14.0111 15.9178 14.0088C15.9088 14.0065 15.8581 13.9923 15.8052 13.9773C15.7522 13.9623 15.7022 13.9486 15.6943 13.9473C15.6854 13.946 15.6758 13.9422 15.6722 13.9393C15.6687 13.9364 15.6377 13.9272 15.6029 13.9189C15.5131 13.897 15.3574 13.8564 15.2881 13.8361C15.2791 13.8338 15.2319 13.8225 15.1831 13.8108C15.1343 13.7992 15.0927 13.7884 15.0915 13.7874C15.0898 13.786 15.079 13.7822 15.0661 13.7787C15.0542 13.7751 15.0424 13.7714 15.0401 13.7706C15.0304 13.7667 14.9305 13.7426 14.8397 13.7218C14.6727 13.6841 14.4559 13.637 14.4017 13.6259C14.3737 13.6201 14.321 13.6083 14.284 13.6003C14.1853 13.5771 14.069 13.5547 14.0531 13.5547C14.0454 13.5544 14.0408 13.5527 14.0433 13.5498C14.0458 13.5468 14.0435 13.5449 14.0381 13.5465C14.0252 13.5501 14.0068 13.5471 13.901 13.5241C13.8125 13.5052 13.7578 13.4958 13.6888 13.4868C13.6721 13.4843 13.6447 13.479 13.629 13.4752C13.6133 13.4715 13.5972 13.4694 13.5934 13.4703C13.5896 13.4713 13.5657 13.4678 13.5405 13.4623C13.5158 13.4563 13.4884 13.451 13.4812 13.4502C13.474 13.4493 13.4505 13.4453 13.4298 13.4404C13.4085 13.4361 13.3527 13.4268 13.3048 13.4189C13.2569 13.412 13.2173 13.4048 13.2155 13.4033C13.2143 13.4024 13.2005 13.4022 13.1847 13.4033C13.1688 13.4045 13.1391 13.4043 13.1191 13.4021C13.0986 13.4005 13.0684 13.401 13.052 13.4027C13.0357 13.4044 13.0203 13.4049 13.0185 13.4035C13.0091 13.3958 12.7883 13.4348 12.7793 13.4455C12.7778 13.4473 12.7601 13.453 12.7412 13.4577C12.6397 13.4814 12.483 13.5565 12.4124 13.6154C12.4 13.6254 12.3858 13.634 12.3814 13.6334C12.3769 13.6327 12.364 13.6433 12.3525 13.657C12.3409 13.6707 12.3204 13.6891 12.3079 13.698C12.2949 13.7065 12.2703 13.7286 12.2524 13.7462C12.2346 13.7638 12.2172 13.7797 12.2134 13.7807C12.2097 13.7827 12.2072 13.7857 12.2069 13.7884Z" fill="white"/>
<path d="M14.9438 18.7844C14.9534 18.7817 14.9609 18.7772 14.9607 18.7742C14.9603 18.7681 14.9385 18.7743 14.9314 18.7828C14.9295 18.7861 14.9347 18.7865 14.9438 18.7844Z" fill="#9C27B0"/>
</g>
</g>
<defs>
<clipPath id="clip0_240_615">
<rect width="15" height="13" fill="white" transform="translate(7 8)"/>
</clipPath>
<clipPath id="clip1_240_615">
<rect width="9.96478" height="9.72911" fill="white" transform="matrix(0.644603 -0.764518 0.775219 0.631693 5.96552 15.1368)"/>
</clipPath>
</defs>
</svg>
