<svg width="518" height="451" viewBox="0 0 518 451" fill="none" xmlns="http://www.w3.org/2000/svg">
<g clip-path="url(#clip0_178_744)">
<path d="M360.614 289.797C367.423 275.603 369.364 265.234 368.411 257.071C367.45 248.842 363.587 243.223 359.645 238.538C358.767 237.495 357.874 236.485 357.015 235.514C356.919 235.405 356.823 235.296 356.727 235.188C355.772 234.107 354.864 233.073 354.015 232.034C352.315 229.954 350.932 227.949 350.017 225.775C348.268 221.615 348.012 216.296 352.057 207.86C354.093 203.617 355.873 199.654 357.503 196.026L357.589 195.833C359.249 192.14 360.744 188.818 362.214 185.85C365.18 179.865 367.892 175.659 371.231 173.035C374.438 170.515 378.46 169.277 384.507 169.802C390.644 170.335 398.728 172.676 409.829 177.252C410.26 177.472 410.806 177.689 411.287 177.881L411.352 177.907L411.428 177.937C412.027 178.176 412.709 178.448 413.476 178.787C415.067 179.491 416.999 180.473 419.014 181.924C423.009 184.801 427.463 189.607 430.119 198.005C435.483 214.966 433.628 246.988 404.541 307.621C375.466 368.227 351.031 391.044 333.712 398.775C325.112 402.615 318.198 402.768 313.179 401.938C310.652 401.52 308.564 400.845 306.936 400.221C306.149 399.919 305.473 399.631 304.88 399.378L304.808 399.348C304.787 399.339 304.766 399.33 304.745 399.321C304.267 399.117 303.728 398.887 303.266 398.738C292.132 394.138 284.846 390.134 280.33 386.28C275.9 382.5 274.276 378.996 274.158 375.232C274.034 371.245 275.576 366.599 278.402 360.533C279.799 357.535 281.464 354.282 283.314 350.667L283.339 350.619C285.176 347.03 287.186 343.104 289.249 338.804C293.291 330.377 297.762 326.9 302.414 325.264C306.215 323.928 310.191 323.75 314.783 323.545C316.193 323.482 317.661 323.416 319.199 323.314C325.567 322.89 332.562 321.792 339.703 317.004C346.807 312.241 353.799 304.003 360.614 289.797Z" fill="#00B2D1" stroke="#0A8DA4" stroke-width="5"/>
</g>
<path d="M38.9097 48.5404V10.0992H107.002H301.55V298.408H107.002H38.9097V259.967" fill="#752995" fill-opacity="0.45"/>
<path d="M38.9097 48.5404V10.0992H107.002H301.55V298.408H107.002H38.9097V259.967" stroke="#752995" stroke-width="5" stroke-linejoin="round"/>
<path d="M38.9095 48.5404H48.6369C53.7967 48.5404 58.7451 50.5654 62.3936 54.17C66.042 57.7745 68.0917 62.6634 68.0917 67.761C68.0917 72.8586 66.042 77.7474 62.3936 81.352C58.7451 84.9565 53.7967 86.9816 48.6369 86.9816H29.1821C24.0224 86.9816 19.074 84.9565 15.4255 81.352C11.777 77.7474 9.72729 72.8586 9.72729 67.761C9.74901 62.6716 11.813 57.7985 15.4665 54.2105C19.0982 50.601 24.0307 48.5619 29.1821 48.5404H38.9095Z" stroke="#752995" stroke-width="5" stroke-linejoin="round"/>
<path d="M38.9095 135.033H48.6369C53.7967 135.033 58.7451 137.058 62.3936 140.663C66.042 144.267 68.0917 149.156 68.0917 154.254C68.0917 159.351 66.042 164.24 62.3936 167.845C58.7451 171.449 53.7967 173.474 48.6369 173.474H29.1821C24.0224 173.474 19.074 171.449 15.4255 167.845C11.777 164.24 9.72729 159.351 9.72729 154.254C9.74901 149.164 11.813 144.291 15.4665 140.703C19.0982 137.094 24.0307 135.054 29.1821 135.033H38.9095Z" stroke="#752995" stroke-width="5" stroke-linejoin="round"/>
<path d="M38.9095 221.526H48.6369C53.7967 221.526 58.7451 223.551 62.3936 227.155C66.042 230.76 68.0917 235.649 68.0917 240.746C68.0917 245.844 66.042 250.733 62.3936 254.337C58.7451 257.942 53.7967 259.967 48.6369 259.967H29.1821C24.0224 259.967 19.074 257.942 15.4255 254.337C11.777 250.733 9.72729 245.844 9.72729 240.746C9.74901 235.657 11.813 230.784 15.4665 227.196C19.0982 223.586 24.0307 221.547 29.1821 221.526H38.9095Z" stroke="#752995" stroke-width="5" stroke-linejoin="round"/>
<path d="M107.001 10.0992V298.408" stroke="#752995" stroke-width="5" stroke-linejoin="round"/>
<path d="M38.9097 86.9816V135.033" stroke="#752995" stroke-width="5" stroke-linejoin="round"/>
<path d="M38.9097 173.474V221.526" stroke="#752995" stroke-width="5" stroke-linejoin="round"/>
<path d="M136.184 221.526H272.368" stroke="#752995" stroke-width="5" stroke-linejoin="round"/>
<path d="M136.184 259.967H272.368" stroke="#752995" stroke-width="5" stroke-linejoin="round"/>
<g clip-path="url(#clip1_178_744)">
<mask id="path-13-inside-1_178_744" fill="white">
<path fill-rule="evenodd" clip-rule="evenodd" d="M211.297 35.5775C207.783 35.4991 205.32 35.9573 205.32 35.9573C193.506 38.6129 187.984 51.0323 187.984 51.0323C182.535 62.9777 185.195 75.1522 185.195 75.1522C189.274 92.5506 204.124 89.6619 204.124 89.6619C214.117 89.0468 221.46 77.9788 221.46 77.9788C229.731 67.4547 230.825 58.1929 230.825 58.1929C232.76 44.0496 223.452 38.7839 223.452 38.7839C219.293 36.4123 214.812 35.66 211.297 35.5804V35.5775ZM157.498 42.7381C153.195 43.1783 149.067 45.2189 145.941 48.0144C139.053 54.8198 136.663 64.4804 136.376 73.6418C136.042 77.8513 137.241 82.1215 139.166 85.8902C142.317 92.3622 149.309 96.8557 156.9 96.8196C162.275 97.5371 168.021 95.7872 171.645 91.9202C174.922 88.7629 176.547 84.4533 177.623 80.2371C179.998 71.49 180.661 61.8215 176.427 53.479C173.81 49.375 169.965 45.7863 165.269 43.8687C162.81 42.8575 160.08 42.4758 157.498 42.7381ZM256.13 62.3356C247.889 62.2572 240.788 66.2927 240.788 66.2927C226.922 72.3885 222.057 90.2243 222.057 90.2243C220.326 107.422 231.223 110.01 231.223 110.01C240.361 113.508 253.739 105.865 253.739 105.865C265.65 100.304 271.274 89.8474 271.274 89.8474C280.289 78.1643 270.876 68.554 270.876 68.554C266.418 63.7734 261.075 62.382 256.13 62.3356ZM189.379 94.5583C184.432 95.2397 179.88 98.3937 175.63 100.777C171.173 103.787 165.632 103.445 160.487 103.038C148.25 102.37 134.591 106.355 128.008 116.794C123.218 123.521 122.793 132.57 126.613 139.783C130.069 145.683 133.995 151.688 140.162 155.423C146.345 159.839 154.031 160.743 161.284 162.584C169.265 164.351 173.524 171.491 179.217 176.34C187.798 184.444 200.789 187.315 212.493 185.008C223.806 181.576 232.873 170.889 232.22 159.381C230.937 151.424 226.782 144.063 222.257 137.334C220.855 131.703 221.219 125.922 220.862 120.186C221.213 110.992 213.182 104.371 206.117 99.2692C202.47 97.3035 198.499 95.6751 194.361 94.9352C192.601 94.489 191.028 94.3311 189.379 94.5554V94.5583ZM264.3 110.764C262.893 110.848 261.467 111.065 260.116 111.331C253.18 112.403 247.053 116.207 241.585 120.187C235.511 124.265 231.941 130.919 231.422 137.9C231.148 139.967 231.163 142.15 232.419 143.93C235.006 149.053 240.359 153.328 246.566 153.541C255.081 153.342 263.321 150.527 270.079 145.626C274.511 142.169 278.806 137.99 281.237 133.001C284.041 127.505 283.246 120.615 278.846 116.042C278.088 115.143 277.233 114.276 276.256 113.592C272.803 111.162 268.522 110.508 264.3 110.765V110.764Z"/>
</mask>
<path fill-rule="evenodd" clip-rule="evenodd" d="M211.297 35.5775C207.783 35.4991 205.32 35.9573 205.32 35.9573C193.506 38.6129 187.984 51.0323 187.984 51.0323C182.535 62.9777 185.195 75.1522 185.195 75.1522C189.274 92.5506 204.124 89.6619 204.124 89.6619C214.117 89.0468 221.46 77.9788 221.46 77.9788C229.731 67.4547 230.825 58.1929 230.825 58.1929C232.76 44.0496 223.452 38.7839 223.452 38.7839C219.293 36.4123 214.812 35.66 211.297 35.5804V35.5775ZM157.498 42.7381C153.195 43.1783 149.067 45.2189 145.941 48.0144C139.053 54.8198 136.663 64.4804 136.376 73.6418C136.042 77.8513 137.241 82.1215 139.166 85.8902C142.317 92.3622 149.309 96.8557 156.9 96.8196C162.275 97.5371 168.021 95.7872 171.645 91.9202C174.922 88.7629 176.547 84.4533 177.623 80.2371C179.998 71.49 180.661 61.8215 176.427 53.479C173.81 49.375 169.965 45.7863 165.269 43.8687C162.81 42.8575 160.08 42.4758 157.498 42.7381ZM256.13 62.3356C247.889 62.2572 240.788 66.2927 240.788 66.2927C226.922 72.3885 222.057 90.2243 222.057 90.2243C220.326 107.422 231.223 110.01 231.223 110.01C240.361 113.508 253.739 105.865 253.739 105.865C265.65 100.304 271.274 89.8474 271.274 89.8474C280.289 78.1643 270.876 68.554 270.876 68.554C266.418 63.7734 261.075 62.382 256.13 62.3356ZM189.379 94.5583C184.432 95.2397 179.88 98.3937 175.63 100.777C171.173 103.787 165.632 103.445 160.487 103.038C148.25 102.37 134.591 106.355 128.008 116.794C123.218 123.521 122.793 132.57 126.613 139.783C130.069 145.683 133.995 151.688 140.162 155.423C146.345 159.839 154.031 160.743 161.284 162.584C169.265 164.351 173.524 171.491 179.217 176.34C187.798 184.444 200.789 187.315 212.493 185.008C223.806 181.576 232.873 170.889 232.22 159.381C230.937 151.424 226.782 144.063 222.257 137.334C220.855 131.703 221.219 125.922 220.862 120.186C221.213 110.992 213.182 104.371 206.117 99.2692C202.47 97.3035 198.499 95.6751 194.361 94.9352C192.601 94.489 191.028 94.3311 189.379 94.5554V94.5583ZM264.3 110.764C262.893 110.848 261.467 111.065 260.116 111.331C253.18 112.403 247.053 116.207 241.585 120.187C235.511 124.265 231.941 130.919 231.422 137.9C231.148 139.967 231.163 142.15 232.419 143.93C235.006 149.053 240.359 153.328 246.566 153.541C255.081 153.342 263.321 150.527 270.079 145.626C274.511 142.169 278.806 137.99 281.237 133.001C284.041 127.505 283.246 120.615 278.846 116.042C278.088 115.143 277.233 114.276 276.256 113.592C272.803 111.162 268.522 110.508 264.3 110.765V110.764Z" fill="#FAF3BA" fill-opacity="0.8"/>
<path d="M211.297 35.5775H216.297V30.6878L211.409 30.5787L211.297 35.5775ZM205.32 35.9573L204.405 31.0416L204.314 31.0586L204.223 31.0791L205.32 35.9573ZM187.984 51.0323L192.533 53.1076L192.543 53.0857L192.553 53.0637L187.984 51.0323ZM185.195 75.1522L180.31 76.2195L180.318 76.2566L180.327 76.2936L185.195 75.1522ZM204.124 89.6619L203.817 84.6713L203.491 84.6914L203.169 84.7539L204.124 89.6619ZM221.46 77.9788L217.528 74.8891L217.404 75.0472L217.293 75.2147L221.46 77.9788ZM230.825 58.1929L225.871 57.5151L225.865 57.5607L225.859 57.6065L230.825 58.1929ZM223.452 38.7839L220.975 43.1273L220.983 43.1315L220.99 43.1357L223.452 38.7839ZM211.297 35.5804H206.297V40.4685L211.184 40.5792L211.297 35.5804ZM157.498 42.7381L156.992 37.7637L156.989 37.7641L157.498 42.7381ZM145.941 48.0144L142.608 44.2874L142.515 44.3702L142.427 44.4576L145.941 48.0144ZM136.376 73.6418L141.361 74.0382L141.37 73.9182L141.374 73.798L136.376 73.6418ZM139.166 85.8902L143.662 83.7014L143.641 83.6584L143.619 83.6158L139.166 85.8902ZM156.9 96.8196L157.562 91.8635L157.22 91.818L156.876 91.8196L156.9 96.8196ZM171.645 91.9202L168.176 88.3194L168.084 88.4079L167.997 88.5009L171.645 91.9202ZM177.623 80.2371L172.798 78.9271L172.788 78.9638L172.778 79.0006L177.623 80.2371ZM176.427 53.479L180.886 51.2164L180.775 50.9977L180.643 50.7908L176.427 53.479ZM165.269 43.8687L163.367 48.4931L163.379 48.4977L165.269 43.8687ZM256.13 62.3356L256.083 67.3353L256.084 67.3354L256.13 62.3356ZM240.788 66.2927L242.8 70.87L243.035 70.7667L243.258 70.6399L240.788 66.2927ZM222.057 90.2243L217.234 88.9087L217.124 89.3098L217.083 89.7234L222.057 90.2243ZM231.223 110.01L233.011 105.341L232.701 105.222L232.379 105.146L231.223 110.01ZM253.739 105.865L251.624 101.334L251.438 101.421L251.259 101.523L253.739 105.865ZM271.274 89.8474L267.316 86.7928L267.065 87.1177L266.871 87.479L271.274 89.8474ZM270.876 68.554L267.219 71.9638L267.261 72.0088L267.304 72.0528L270.876 68.554ZM189.379 94.5583L190.061 99.5116L194.379 98.9168V94.5583H189.379ZM175.63 100.777L173.185 96.4156L173.004 96.517L172.832 96.6331L175.63 100.777ZM160.487 103.038L160.881 98.0536L160.82 98.0487L160.759 98.0454L160.487 103.038ZM128.008 116.794L132.081 119.694L132.162 119.58L132.237 119.461L128.008 116.794ZM126.613 139.783L122.194 142.123L122.244 142.218L122.299 142.311L126.613 139.783ZM140.162 155.423L143.068 151.355L142.915 151.245L142.753 151.147L140.162 155.423ZM161.284 162.584L160.054 167.43L160.128 167.449L160.203 167.466L161.284 162.584ZM179.217 176.34L182.65 172.705L182.557 172.617L182.459 172.534L179.217 176.34ZM212.493 185.008L213.46 189.914L213.705 189.865L213.944 189.793L212.493 185.008ZM232.22 159.381L237.211 159.097L237.197 158.84L237.156 158.585L232.22 159.381ZM222.257 137.334L217.405 138.542L217.617 139.395L218.108 140.124L222.257 137.334ZM220.862 120.186L215.865 119.995L215.856 120.246L215.871 120.496L220.862 120.186ZM206.117 99.2692L209.044 95.2157L208.778 95.0236L208.489 94.868L206.117 99.2692ZM194.361 94.9352L193.131 99.7817L193.305 99.8257L193.481 99.8572L194.361 94.9352ZM189.379 94.5554L188.705 89.601L184.379 90.1895V94.5554H189.379ZM264.3 110.764H269.3V105.455L264.001 105.773L264.3 110.764ZM260.116 111.331L260.879 116.272L260.98 116.257L261.079 116.237L260.116 111.331ZM241.585 120.187L244.372 124.338L244.45 124.286L244.527 124.23L241.585 120.187ZM231.422 137.9L236.379 138.559L236.398 138.415L236.409 138.271L231.422 137.9ZM232.419 143.93L236.882 141.676L236.716 141.348L236.505 141.049L232.419 143.93ZM246.566 153.541L246.395 158.538L246.539 158.543L246.683 158.539L246.566 153.541ZM270.079 145.626L273.014 149.674L273.085 149.622L273.154 149.569L270.079 145.626ZM281.237 133.001L276.783 130.728L276.762 130.769L276.742 130.811L281.237 133.001ZM278.846 116.042L275.023 119.265L275.129 119.39L275.243 119.508L278.846 116.042ZM276.256 113.592L273.378 117.681L273.389 117.688L276.256 113.592ZM264.3 110.765H259.3V116.08L264.604 115.756L264.3 110.765ZM211.409 30.5787C209.414 30.5342 207.714 30.6417 206.497 30.7625C205.886 30.8231 205.392 30.8876 205.037 30.9394C204.86 30.9653 204.716 30.9882 204.61 31.0059C204.557 31.0147 204.513 31.0223 204.479 31.0283C204.462 31.0314 204.447 31.034 204.435 31.0362C204.429 31.0373 204.423 31.0383 204.418 31.0393C204.416 31.0397 204.414 31.0401 204.411 31.0405C204.41 31.0407 204.409 31.0409 204.408 31.0411C204.408 31.0412 204.407 31.0413 204.407 31.0414C204.406 31.0415 204.405 31.0416 205.32 35.9573C206.234 40.873 206.233 40.8731 206.233 40.8733C206.232 40.8733 206.232 40.8734 206.231 40.8735C206.231 40.8737 206.23 40.8738 206.229 40.874C206.227 40.8742 206.226 40.8745 206.225 40.8747C206.222 40.8752 206.22 40.8755 206.219 40.8758C206.216 40.8763 206.216 40.8764 206.218 40.876C206.221 40.8754 206.234 40.8732 206.255 40.8697C206.297 40.8626 206.374 40.8503 206.482 40.8345C206.698 40.8029 207.04 40.7577 207.485 40.7136C208.378 40.6248 209.667 40.5424 211.186 40.5763L211.409 30.5787ZM204.223 31.0791C196.834 32.7401 191.617 37.3968 188.377 41.2942C186.734 43.2705 185.52 45.1449 184.711 46.5339C184.305 47.2316 183.996 47.8155 183.781 48.2401C183.674 48.4526 183.59 48.6259 183.529 48.7544C183.499 48.8187 183.474 48.8718 183.455 48.9131C183.446 48.9338 183.438 48.9515 183.431 48.9661C183.428 48.9735 183.425 48.98 183.422 48.9858C183.421 48.9887 183.42 48.9915 183.419 48.994C183.418 48.9952 183.417 48.997 183.417 48.9976C183.416 48.9993 183.416 49.0009 187.984 51.0323C192.553 53.0637 192.552 53.0652 192.552 53.0667C192.551 53.0671 192.551 53.0686 192.55 53.0695C192.55 53.0712 192.549 53.0728 192.548 53.0742C192.547 53.077 192.546 53.0791 192.546 53.0804C192.544 53.0831 192.544 53.083 192.546 53.08C192.548 53.0742 192.556 53.0572 192.569 53.0299C192.595 52.9752 192.641 52.8791 192.708 52.7468C192.842 52.4818 193.056 52.0748 193.352 51.5666C193.948 50.5441 194.853 49.1476 196.067 47.6871C198.541 44.7109 201.992 41.8302 206.416 40.8356L204.223 31.0791ZM183.435 48.957C180.326 55.7729 179.564 62.5615 179.546 67.5539C179.537 70.0669 179.716 72.1756 179.902 73.677C179.995 74.4292 180.09 75.0332 180.165 75.4644C180.203 75.68 180.236 75.8528 180.261 75.9796C180.273 76.043 180.284 76.095 180.292 76.1351C180.296 76.1551 180.3 76.1722 180.303 76.1863C180.304 76.1934 180.306 76.1996 180.307 76.2052C180.307 76.208 180.308 76.2105 180.308 76.2129C180.309 76.2141 180.309 76.2158 180.309 76.2164C180.31 76.218 180.31 76.2195 185.195 75.1522C190.079 74.085 190.08 74.0864 190.08 74.0878C190.08 74.0882 190.08 74.0896 190.081 74.0904C190.081 74.0921 190.081 74.0936 190.082 74.0948C190.082 74.0974 190.083 74.0993 190.083 74.1004C190.083 74.1027 190.083 74.1022 190.082 74.0988C190.081 74.0921 190.077 74.0743 190.072 74.0456C190.06 73.9882 190.041 73.8878 190.017 73.7472C189.968 73.4659 189.898 73.0255 189.826 72.4497C189.684 71.2951 189.539 69.6135 189.546 67.5896C189.56 63.5084 190.193 58.2371 192.533 53.1076L183.435 48.957ZM180.327 76.2936C182.758 86.6649 188.714 91.6475 194.563 93.6595C197.327 94.6107 199.887 94.8401 201.736 94.8414C202.67 94.8421 203.449 94.7847 204.018 94.7228C204.304 94.6917 204.539 94.6593 204.718 94.6318C204.807 94.618 204.882 94.6055 204.943 94.5949C204.973 94.5896 204.999 94.5849 205.022 94.5807C205.033 94.5786 205.044 94.5766 205.053 94.5748C205.058 94.5739 205.063 94.573 205.067 94.5722C205.069 94.5718 205.072 94.5712 205.073 94.571C205.076 94.5705 205.079 94.5699 204.124 89.6619C203.169 84.7539 203.172 84.7533 203.175 84.7528C203.176 84.7527 203.178 84.7521 203.18 84.7518C203.183 84.7512 203.187 84.7506 203.19 84.75C203.195 84.7489 203.2 84.748 203.205 84.7472C203.213 84.7456 203.218 84.7447 203.22 84.7444C203.224 84.7437 203.216 84.7452 203.195 84.7484C203.154 84.7547 203.066 84.7673 202.938 84.7813C202.679 84.8094 202.266 84.8418 201.744 84.8414C200.681 84.8406 199.273 84.7048 197.816 84.2034C195.219 83.3102 191.71 81.0379 190.063 74.0109L180.327 76.2936ZM204.431 94.6525C211.128 94.2403 216.522 90.4059 219.928 87.2658C221.693 85.6385 223.09 84.0445 224.048 82.8564C224.53 82.2591 224.908 81.7557 225.173 81.3904C225.305 81.2076 225.41 81.0586 225.486 80.949C225.524 80.8942 225.555 80.8492 225.578 80.8146C225.59 80.7973 225.6 80.7826 225.608 80.7707C225.612 80.7647 225.615 80.7594 225.618 80.7547C225.62 80.7524 225.621 80.7502 225.623 80.7483C225.623 80.7473 225.624 80.7459 225.624 80.7454C225.625 80.7441 225.626 80.7429 221.46 77.9788C217.293 75.2147 217.294 75.2135 217.295 75.2124C217.295 75.2121 217.296 75.211 217.296 75.2103C217.297 75.209 217.298 75.2079 217.298 75.2069C217.3 75.2049 217.3 75.2036 217.301 75.203C217.302 75.2016 217.301 75.2028 217.299 75.2065C217.294 75.2139 217.282 75.2311 217.264 75.2575C217.227 75.3103 217.164 75.3997 217.077 75.5207C216.901 75.7631 216.627 76.1292 216.264 76.5791C215.533 77.4856 214.47 78.697 213.15 79.9136C210.387 82.4613 207.113 84.4685 203.817 84.6713L204.431 94.6525ZM225.391 81.0685C229.904 75.3266 232.487 69.8921 233.948 65.8331C234.679 63.8041 235.13 62.1159 235.403 60.8994C235.54 60.2909 235.632 59.7993 235.692 59.4409C235.722 59.2617 235.745 59.1156 235.76 59.0047C235.768 58.9493 235.775 58.9026 235.78 58.8649C235.782 58.8461 235.784 58.8295 235.786 58.8153C235.787 58.8081 235.788 58.8016 235.788 58.7956C235.789 58.7926 235.789 58.7897 235.789 58.787C235.789 58.7856 235.79 58.7837 235.79 58.783C235.79 58.7812 235.79 58.7793 230.825 58.1929C225.859 57.6065 225.859 57.6047 225.86 57.603C225.86 57.6024 225.86 57.6007 225.86 57.5996C225.86 57.5975 225.861 57.5955 225.861 57.5936C225.861 57.5899 225.862 57.5867 225.862 57.584C225.863 57.5787 225.863 57.5756 225.863 57.5746C225.863 57.5727 225.863 57.5793 225.86 57.5943C225.856 57.6242 225.847 57.6873 225.831 57.7819C225.799 57.9711 225.741 58.2854 225.646 58.7095C225.455 59.5585 225.116 60.8435 224.54 62.4454C223.386 65.6484 221.287 70.1068 217.528 74.8891L225.391 81.0685ZM235.779 58.8707C236.921 50.5227 234.748 44.4403 232.006 40.3844C230.667 38.4024 229.238 36.9709 228.111 36.0149C227.546 35.5357 227.051 35.1711 226.672 34.9117C226.483 34.7818 226.321 34.6777 226.193 34.5983C226.129 34.5585 226.073 34.5249 226.027 34.4973C226.003 34.4835 225.982 34.4711 225.963 34.4602C225.954 34.4548 225.945 34.4497 225.937 34.445C225.933 34.4427 225.929 34.4404 225.925 34.4383C225.923 34.4372 225.921 34.4356 225.92 34.4351C225.917 34.4335 225.914 34.432 223.452 38.7839C220.99 43.1357 220.988 43.1343 220.985 43.1328C220.984 43.1323 220.982 43.1309 220.98 43.13C220.977 43.1281 220.974 43.1263 220.971 43.1246C220.965 43.1212 220.959 43.1181 220.954 43.1152C220.945 43.1096 220.937 43.105 220.931 43.1016C220.919 43.0947 220.916 43.0924 220.919 43.0947C220.927 43.0993 220.963 43.1221 221.024 43.1639C221.147 43.2477 221.364 43.4049 221.642 43.6404C222.199 44.1136 222.977 44.8825 223.722 45.9849C225.15 48.0976 226.664 51.7197 225.871 57.5151L235.779 58.8707ZM225.929 34.4404C220.844 31.5407 215.482 30.6739 211.411 30.5817L211.184 40.5792C214.141 40.6461 217.743 41.2838 220.975 43.1273L225.929 34.4404ZM216.297 35.5804V35.5775H206.297V35.5804H216.297ZM156.989 37.7641C151.497 38.3259 146.408 40.8883 142.608 44.2874L149.274 51.7413C151.725 49.5494 154.893 48.0307 158.007 47.7122L156.989 37.7641ZM142.427 44.4576C134.24 52.5459 131.684 63.7138 131.379 73.4856L141.374 73.798C141.641 65.2471 143.866 57.0936 149.455 51.5711L142.427 44.4576ZM131.392 73.2454C130.963 78.6369 132.504 83.8397 134.713 88.1646L143.619 83.6158C141.978 80.4032 141.12 77.0657 141.361 74.0382L131.392 73.2454ZM134.671 88.079C138.659 96.2697 147.401 101.865 156.924 101.82L156.876 91.8196C151.216 91.8466 145.976 88.4547 143.662 83.7014L134.671 88.079ZM156.238 101.776C162.994 102.678 170.421 100.537 175.293 95.3395L167.997 88.5009C165.62 91.0371 161.556 92.3967 157.562 91.8635L156.238 101.776ZM175.114 95.521C179.415 91.3776 181.325 85.9504 182.468 81.4736L172.778 79.0006C171.769 82.9562 170.43 86.1482 168.176 88.3194L175.114 95.521ZM182.448 81.5471C184.965 72.2769 185.931 61.1573 180.886 51.2164L171.969 55.7416C175.391 62.4858 175.03 70.7031 172.798 78.9271L182.448 81.5471ZM180.643 50.7908C177.572 45.975 172.974 41.6143 167.159 39.2398L163.379 48.4977C166.955 49.9582 170.048 52.7751 172.211 56.1672L180.643 50.7908ZM167.17 39.2444C163.941 37.9165 160.383 37.4192 156.992 37.7637L158.003 47.7125C159.776 47.5324 161.678 47.7985 163.367 48.4931L167.17 39.2444ZM256.178 57.3358C251.271 57.2891 246.825 58.4585 243.691 59.5745C242.104 60.1396 240.802 60.7096 239.882 61.1464C239.421 61.3653 239.052 61.5524 238.788 61.6908C238.656 61.76 238.55 61.8172 238.471 61.8604C238.431 61.8819 238.399 61.9 238.373 61.9143C238.36 61.9214 238.349 61.9276 238.34 61.9329C238.335 61.9355 238.331 61.9379 238.327 61.94C238.325 61.941 238.324 61.9421 238.322 61.943C238.321 61.9435 238.32 61.9441 238.32 61.9444C238.318 61.945 238.317 61.9456 240.788 66.2927C243.258 70.6399 243.257 70.6405 243.256 70.6411C243.256 70.6412 243.255 70.6418 243.254 70.6421C243.253 70.6428 243.252 70.6435 243.251 70.644C243.249 70.6452 243.247 70.6461 243.246 70.6468C243.243 70.6481 243.243 70.6486 243.243 70.6481C243.245 70.6471 243.253 70.6425 243.268 70.6345C243.297 70.6186 243.352 70.5892 243.43 70.5482C243.586 70.4663 243.837 70.3386 244.17 70.1805C244.839 69.863 245.827 69.429 247.046 68.995C249.523 68.1129 252.749 67.3036 256.083 67.3353L256.178 57.3358ZM238.775 61.7155C230.426 65.386 225.062 72.4341 221.869 78.0852C220.244 80.962 219.101 83.6193 218.361 85.5636C217.99 86.5392 217.716 87.3447 217.532 87.9202C217.44 88.2083 217.369 88.4395 217.32 88.6065C217.295 88.6901 217.276 88.7576 217.262 88.8083C217.254 88.8336 217.248 88.8547 217.244 88.8715C217.241 88.8799 217.239 88.8872 217.238 88.8934C217.237 88.8965 217.236 88.8993 217.235 88.9019C217.235 88.9031 217.235 88.9049 217.234 88.9055C217.234 88.9071 217.234 88.9087 222.057 90.2243C226.881 91.5398 226.881 91.5413 226.88 91.5426C226.88 91.543 226.88 91.5443 226.88 91.545C226.879 91.5465 226.879 91.5477 226.879 91.5486C226.878 91.5505 226.878 91.5513 226.878 91.5511C226.878 91.5507 226.879 91.5461 226.882 91.5375C226.887 91.5203 226.896 91.487 226.911 91.4384C226.939 91.3412 226.987 91.1833 227.055 90.9717C227.191 90.5481 227.406 89.9125 227.707 89.1208C228.312 87.5304 229.252 85.3477 230.576 83.0036C233.282 78.2129 237.283 73.2952 242.8 70.87L238.775 61.7155ZM217.083 89.7234C216.099 99.4896 218.677 105.899 222.268 109.904C223.999 111.834 225.825 113.045 227.261 113.784C227.98 114.153 228.607 114.408 229.089 114.578C229.33 114.664 229.536 114.729 229.701 114.777C229.784 114.801 229.856 114.821 229.917 114.837C229.948 114.845 229.976 114.852 230.001 114.859C230.014 114.862 230.025 114.865 230.037 114.867C230.042 114.869 230.047 114.87 230.053 114.871C230.055 114.872 230.059 114.873 230.06 114.873C230.064 114.874 230.068 114.875 231.223 110.01C232.379 105.146 232.382 105.146 232.386 105.147C232.387 105.147 232.391 105.148 232.393 105.149C232.397 105.15 232.402 105.151 232.406 105.152C232.414 105.154 232.422 105.156 232.43 105.158C232.444 105.162 232.457 105.165 232.467 105.167C232.487 105.173 232.498 105.176 232.501 105.177C232.507 105.179 232.481 105.171 232.428 105.152C232.32 105.114 232.11 105.032 231.834 104.89C231.281 104.606 230.491 104.095 229.714 103.228C228.289 101.64 226.284 98.1565 227.032 90.7251L217.083 89.7234ZM229.436 114.68C235.702 117.078 242.762 115.545 247.468 113.999C249.959 113.181 252.116 112.248 253.647 111.523C254.417 111.158 255.039 110.841 255.478 110.61C255.697 110.494 255.872 110.399 255.997 110.33C256.059 110.296 256.109 110.268 256.147 110.247C256.165 110.237 256.181 110.228 256.193 110.221C256.199 110.218 256.204 110.215 256.209 110.212C256.211 110.211 256.213 110.21 256.215 110.209C256.216 110.208 256.217 110.207 256.217 110.207C256.219 110.207 256.22 110.206 253.739 105.865C251.259 101.523 251.26 101.523 251.261 101.522C251.261 101.522 251.262 101.521 251.263 101.521C251.264 101.521 251.264 101.52 251.265 101.52C251.266 101.519 251.267 101.519 251.266 101.519C251.265 101.519 251.262 101.522 251.255 101.526C251.241 101.533 251.215 101.548 251.177 101.569C251.102 101.61 250.98 101.676 250.816 101.763C250.487 101.936 249.993 102.188 249.365 102.486C248.103 103.084 246.343 103.843 244.348 104.499C240.08 105.901 235.882 106.44 233.011 105.341L229.436 114.68ZM255.855 110.395C262.614 107.239 267.531 102.727 270.737 99.0627C272.347 97.2214 273.552 95.5644 274.366 94.3467C274.774 93.7368 275.086 93.2338 275.303 92.8691C275.412 92.6866 275.497 92.5384 275.56 92.4283C275.591 92.3733 275.616 92.3277 275.636 92.2921C275.646 92.2743 275.654 92.259 275.661 92.2463C275.665 92.2399 275.668 92.2342 275.67 92.2291C275.672 92.2265 275.673 92.2242 275.674 92.2219C275.675 92.2208 275.676 92.2193 275.676 92.2187C275.677 92.2172 275.678 92.2158 271.274 89.8474C266.871 87.479 266.871 87.4776 266.872 87.4763C266.872 87.4759 266.873 87.4746 266.873 87.4738C266.874 87.4722 266.875 87.4708 266.876 87.4695C266.877 87.4669 266.878 87.465 266.879 87.4637C266.88 87.461 266.88 87.4608 266.879 87.463C266.877 87.4673 266.869 87.4812 266.856 87.504C266.83 87.5498 266.783 87.6317 266.715 87.746C266.579 87.9748 266.358 88.3322 266.052 88.7895C265.44 89.7061 264.494 91.0107 263.21 92.4786C260.626 95.4323 256.776 98.9288 251.624 101.334L255.855 110.395ZM275.233 92.902C280.852 85.6192 280.887 78.5516 279.221 73.3064C278.424 70.7948 277.272 68.7884 276.332 67.4139C275.857 66.7204 275.423 66.1691 275.092 65.7746C274.926 65.5769 274.784 65.417 274.675 65.2968C274.62 65.2367 274.573 65.1864 274.535 65.146C274.516 65.1259 274.499 65.1082 274.484 65.0931C274.477 65.0855 274.47 65.0785 274.464 65.0722C274.461 65.0691 274.458 65.0661 274.455 65.0632C274.454 65.0618 274.452 65.0598 274.451 65.0591C274.449 65.0571 274.447 65.0552 270.876 68.554C267.304 72.0528 267.302 72.051 267.3 72.0491C267.3 72.0486 267.298 72.0468 267.297 72.0457C267.294 72.0434 267.292 72.0413 267.29 72.0393C267.287 72.0353 267.283 72.0319 267.28 72.0289C267.275 72.0231 267.271 72.0194 267.27 72.0178C267.267 72.0146 267.272 72.0196 267.284 72.0327C267.308 72.059 267.359 72.1171 267.433 72.2049C267.582 72.3817 267.813 72.6724 268.08 73.0624C268.622 73.855 269.261 74.9813 269.69 76.3327C270.478 78.8133 270.711 82.3925 267.316 86.7928L275.233 92.902ZM274.533 65.1442C268.896 59.0987 262.087 57.3913 256.177 57.3358L256.084 67.3354C260.064 67.3727 263.941 68.4481 267.219 71.9638L274.533 65.1442ZM188.697 89.6051C185.425 90.0557 182.475 91.2931 179.964 92.5791C177.606 93.7867 174.971 95.4141 173.185 96.4156L178.076 105.138C180.54 103.756 182.305 102.615 184.522 101.48C186.586 100.423 188.386 99.7423 190.061 99.5116L188.697 89.6051ZM172.832 96.6331C170.047 98.5139 166.328 98.4844 160.881 98.0536L160.092 108.022C164.937 108.406 172.299 109.06 178.429 104.92L172.832 96.6331ZM160.759 98.0454C147.636 97.3295 131.739 101.504 123.778 114.127L132.237 119.461C137.443 111.206 148.864 107.411 160.214 108.031L160.759 98.0454ZM123.935 113.894C118.007 122.219 117.523 133.302 122.194 142.123L131.032 137.443C128.063 131.838 128.429 124.822 132.081 119.694L123.935 113.894ZM122.299 142.311C125.765 148.228 130.227 155.251 137.572 159.7L142.753 151.147C137.764 148.125 134.373 143.138 130.927 137.256L122.299 142.311ZM137.256 159.492C141.013 162.175 145.1 163.7 148.974 164.784C150.91 165.326 152.854 165.774 154.697 166.188C156.578 166.61 158.326 166.992 160.054 167.43L162.514 157.738C160.615 157.256 158.683 156.834 156.889 156.431C155.058 156.02 153.335 155.621 151.67 155.154C148.341 154.223 145.495 153.088 143.068 151.355L137.256 159.492ZM160.203 167.466C162.921 168.068 165.19 169.601 167.681 171.947C168.95 173.142 170.146 174.417 171.53 175.857C172.863 177.245 174.345 178.759 175.975 180.146L182.459 172.534C181.242 171.497 180.057 170.3 178.742 168.93C177.477 167.613 176.041 166.083 174.536 164.666C171.479 161.787 167.628 158.867 162.364 157.702L160.203 167.466ZM175.784 179.975C185.733 189.371 200.45 192.478 213.46 189.914L211.526 180.103C201.129 182.152 189.863 179.517 182.65 172.705L175.784 179.975ZM213.944 189.793C226.956 185.846 238.023 173.403 237.211 159.097L227.228 159.664C227.722 168.376 220.657 177.307 211.042 180.223L213.944 189.793ZM237.156 158.585C235.693 149.511 231.018 141.401 226.406 134.543L218.108 140.124C222.547 146.725 226.181 153.337 227.283 160.176L237.156 158.585ZM227.108 136.125C226.525 133.782 226.285 131.311 226.162 128.575C226.053 126.145 226.026 122.669 225.852 119.875L215.871 120.496C216.055 123.439 216.024 125.722 216.172 129.024C216.307 132.02 216.586 135.254 217.405 138.542L227.108 136.125ZM225.858 120.377C226.096 114.15 223.453 109.032 220.123 105.007C216.84 101.037 212.614 97.794 209.044 95.2157L203.19 103.323C206.684 105.846 210.006 108.465 212.418 111.38C214.782 114.239 215.979 117.028 215.865 119.995L225.858 120.377ZM208.489 94.868C204.548 92.7433 200.064 90.8755 195.24 90.0132L193.481 99.8572C196.935 100.475 200.392 101.864 203.744 103.67L208.489 94.868ZM195.59 90.0886C193.386 89.5297 191.149 89.2686 188.705 89.601L190.053 99.5097C190.908 99.3935 191.816 99.4482 193.131 99.7817L195.59 90.0886ZM184.379 94.5554V94.5583H194.379V94.5554H184.379ZM264.001 105.773C262.298 105.875 260.638 106.133 259.152 106.424L261.079 116.237C262.296 115.998 263.488 115.822 264.599 115.755L264.001 105.773ZM259.352 106.389C251.163 107.655 244.216 112.088 238.642 116.145L244.527 124.23C249.891 120.326 255.197 117.15 260.879 116.272L259.352 106.389ZM238.797 116.036C231.367 121.026 227.061 129.12 226.436 137.53L236.409 138.271C236.821 132.719 239.656 127.505 244.372 124.338L238.797 116.036ZM226.466 137.241C226.154 139.59 225.938 143.416 228.333 146.812L236.505 141.049C236.449 140.97 236.358 140.806 236.309 140.411C236.256 139.977 236.269 139.385 236.379 138.559L226.466 137.241ZM227.956 146.185C231.184 152.576 237.992 158.25 246.395 158.538L246.737 148.544C242.725 148.406 238.829 145.531 236.882 141.676L227.956 146.185ZM246.683 158.539C256.215 158.316 265.438 155.168 273.014 149.674L267.143 141.579C261.205 145.885 253.947 148.367 246.449 148.542L246.683 158.539ZM273.154 149.569C277.803 145.942 282.805 141.197 285.732 135.191L276.742 130.811C274.807 134.782 271.219 138.395 267.003 141.684L273.154 149.569ZM285.691 135.274C289.41 127.985 288.408 118.768 282.449 112.575L275.243 119.508C278.085 122.462 278.673 127.026 276.783 130.728L285.691 135.274ZM282.668 112.818C281.755 111.735 280.583 110.518 279.122 109.495L273.389 117.688C273.882 118.034 274.422 118.551 275.023 119.265L282.668 112.818ZM279.133 109.503C274.412 106.181 268.849 105.479 263.996 105.775L264.604 115.756C268.194 115.537 271.193 116.144 273.378 117.681L279.133 109.503ZM269.3 110.765V110.764H259.3V110.765H269.3Z" fill="#752995" mask="url(#path-13-inside-1_178_744)"/>
</g>
<defs>
<clipPath id="clip0_178_744">
<rect width="257.165" height="272.005" fill="white" transform="matrix(-0.361869 -0.932229 0.935129 -0.354307 263.64 451)"/>
</clipPath>
<clipPath id="clip1_178_744">
<rect x="107.817" y="20.2234" width="191.288" height="180.9" fill="white"/>
</clipPath>
</defs>
</svg>
