<svg width="496" height="451" viewBox="0 0 496 451" fill="none" xmlns="http://www.w3.org/2000/svg">
<g clip-path="url(#clip0_188_483)">
<path d="M178.622 208.591C187.747 203.583 194.311 196.721 198.317 188.004C202.322 179.286 203.281 170.633 201.192 162.044C199.768 155.176 197.694 147.818 194.97 139.969C192.245 132.12 188.488 123.186 183.697 113.169C178.906 103.151 172.993 95.7916 165.955 91.0919C158.918 86.3923 152.174 86.0298 145.723 90.005C118.35 105.028 104.856 126.558 105.242 154.596C105.331 180.277 114.865 198.6 133.845 209.566C148.121 217.899 163.047 217.574 178.622 208.591Z" fill="#752995" fill-opacity="0.45"/>
<path d="M176.698 205.084L176.661 205.105L176.624 205.126C162.159 213.468 148.771 213.647 135.861 206.112L135.854 206.107L135.846 206.103C118.331 195.982 109.327 179.129 109.242 154.582L109.242 154.562L109.242 154.541C109.058 141.209 112.166 129.59 118.463 119.544C124.773 109.475 134.424 100.769 147.647 93.5116L147.736 93.4632L147.821 93.4104C150.442 91.7957 152.943 91.1574 155.405 91.2896C157.9 91.4237 160.663 92.3674 163.734 94.4184C170.014 98.6126 175.513 105.327 180.088 114.894C184.835 124.819 188.528 133.611 191.191 141.281C193.868 148.995 195.892 156.185 197.275 162.856L197.289 162.923L197.305 162.989C199.162 170.627 198.345 178.36 194.682 186.334C191.066 194.204 185.137 200.452 176.698 205.084Z" stroke="#752995" stroke-opacity="0.45" stroke-width="8"/>
<path d="M287.68 166.47C310.761 161.018 322.757 146.742 323.666 123.643C324.776 99.4776 314.827 80.0785 293.817 65.4452C276.441 53.8592 256.21 50.794 233.128 56.2473C225.144 57.8471 220.26 62.7005 218.477 70.8067C216.693 78.9135 217.395 88.2852 220.582 98.9226C223.769 109.56 226.858 118.752 229.85 126.497C232.841 134.243 236.118 141.137 239.68 147.179C243.906 154.942 250.433 160.704 259.259 164.466C268.084 168.228 277.558 168.896 287.68 166.47Z" fill="#752995" fill-opacity="0.45"/>
<path d="M286.76 162.577L286.748 162.58C277.386 164.824 268.795 164.183 260.827 160.787C252.755 157.345 246.951 152.169 243.194 145.266L243.161 145.206L243.126 145.147C239.693 139.325 236.508 132.634 233.581 125.056C230.637 117.433 227.58 108.344 224.414 97.7747C221.359 87.577 220.787 78.9214 222.384 71.6665L222.384 71.6658C223.145 68.2072 224.503 65.7073 226.297 63.9243C228.087 62.1457 230.548 60.8437 233.914 60.1693L233.981 60.1558L234.047 60.1401C256.197 54.9073 275.248 57.8847 291.564 68.7509C311.503 82.6512 320.712 100.773 319.67 123.459L319.67 123.472L319.669 123.485C319.241 134.365 316.226 142.791 310.925 149.1C305.616 155.419 297.693 159.995 286.76 162.577Z" stroke="#752995" stroke-opacity="0.45" stroke-width="8"/>
<path d="M165.51 274.851C162.103 266.029 155.678 259.733 146.235 255.963C137.327 251.985 125.312 248.714 110.191 246.147C95.0701 243.581 86.137 244.311 83.3917 248.338C77.5334 257.03 76.6962 267.985 80.8803 281.204C85.0643 294.423 91.8235 305.165 101.159 313.427C106.158 318.419 112.48 321.665 120.124 323.163C127.768 324.661 135.064 324.069 142.014 321.385C152.172 317.461 159.478 310.931 163.935 301.792C168.392 292.652 168.917 283.673 165.51 274.851Z" fill="#752995" fill-opacity="0.45"/>
<path d="M144.604 259.615L144.677 259.648L144.752 259.677C153.249 263.07 158.804 268.592 161.778 276.292C164.752 283.992 164.351 291.815 160.34 300.038C156.359 308.202 149.862 314.066 140.573 317.653C134.36 320.053 127.832 320.598 120.893 319.238C113.945 317.876 108.365 314.971 103.985 310.597L103.9 310.512L103.81 310.432C95.0762 302.702 88.6846 292.606 84.6938 279.997C80.752 267.543 81.7374 257.958 86.7006 250.586C87.0031 250.149 88.2873 249.099 92.4764 248.757C96.4576 248.431 102.093 248.83 109.522 250.091C124.477 252.629 136.126 255.83 144.604 259.615Z" stroke="#752995" stroke-opacity="0.45" stroke-width="8"/>
<path d="M384.906 131.886C380.165 130.75 373.06 136.214 363.591 148.278C354.12 160.342 347.424 170.841 343.502 179.773C339.58 188.706 339.322 197.583 342.729 206.404C346.137 215.226 352.56 221.522 362.004 225.293C371.447 229.063 380.98 229.09 390.603 225.374C398.088 222.483 404.023 217.965 408.406 211.821C412.794 205.676 415.159 199.076 415.503 192.02C416.86 179.628 414.645 167.132 408.857 154.532C403.069 141.932 395.085 134.384 384.906 131.886Z" fill="#752995" fill-opacity="0.45"/>
<path d="M366.737 150.748L366.737 150.748C371.39 144.821 375.294 140.738 378.46 138.303C381.791 135.741 383.448 135.654 383.967 135.775C392.597 137.897 399.769 144.331 405.222 156.201C410.743 168.219 412.796 179.991 411.527 191.585L411.514 191.705L411.508 191.826C411.204 198.062 409.125 203.931 405.151 209.497L405.15 209.498C401.25 214.964 395.965 219.014 389.162 221.642C380.465 225.001 371.977 224.968 363.488 221.578L363.487 221.578C354.99 218.185 349.435 212.664 346.461 204.963C343.448 197.161 343.652 189.381 347.165 181.381C350.898 172.88 357.37 162.68 366.737 150.748Z" stroke="#752995" stroke-opacity="0.45" stroke-width="8"/>
<path d="M391.716 261.661C384.125 257.917 372.716 257.007 357.488 258.933C349.373 258.605 341.956 256.895 335.233 253.805C328.511 250.715 323.816 247.706 321.15 244.78C318.48 241.856 314.541 236.824 309.331 229.688C304.111 222.556 300.82 218.016 299.463 216.068C293.466 208.494 284.841 203.666 273.593 201.581C262.344 199.497 251.107 200.623 239.88 204.959C228.653 209.295 219.802 215.805 213.326 224.487C206.85 233.169 203.587 242.218 203.537 251.633C203.798 255.488 204.455 261.169 205.511 268.673C206.566 276.178 207.216 282.232 207.458 286.836C207.7 291.441 206.505 297.094 203.872 303.798C201.239 310.502 196.495 316.908 189.639 323.018C177.77 332.053 170.192 340.667 166.906 348.859C163.619 357.051 164.303 367.172 168.956 379.221C172.779 389.118 181.071 396.671 193.834 401.879C206.597 407.087 219.643 407.859 232.972 404.195C261.399 396.677 284.394 383.84 301.956 365.683C327.162 367.321 352.816 361.369 378.917 347.827C391.784 341.374 401.19 331.93 407.14 319.495C413.088 307.061 414.151 295.894 410.329 285.997C405.51 273.517 399.305 265.406 391.716 261.661ZM332.62 301.917L301.344 313.996L311.566 340.461L277.886 353.469L267.665 327.004L234.787 339.702L224.566 313.237L257.443 300.539L247.222 274.075L280.902 261.067L291.123 287.531L322.399 275.452L332.62 301.917Z" fill="#752995" fill-opacity="0.45"/>
<path d="M357.327 262.929L357.659 262.943L357.99 262.901C372.987 261.005 383.429 262.033 389.947 265.248C396.237 268.352 401.94 275.375 406.597 287.438L406.597 287.438C409.913 296.024 409.154 306.015 403.532 317.769C397.983 329.366 389.235 338.178 377.124 344.252L377.099 344.264L377.075 344.277C351.513 357.539 326.582 363.275 302.215 361.692L300.368 361.572L299.08 362.902C282.104 380.454 259.789 392.965 231.949 400.328L231.93 400.333L231.911 400.338C219.43 403.769 207.289 403.049 195.346 398.176C183.282 393.253 176.004 386.365 172.688 377.78C168.232 366.243 167.851 357.245 170.618 350.348C173.509 343.143 180.417 335.065 192.062 326.201L192.185 326.107L192.301 326.004C199.5 319.589 204.678 312.687 207.595 305.261C210.332 298.292 211.736 292.031 211.452 286.626C211.201 281.856 210.535 275.673 209.472 268.116C208.434 260.734 207.796 255.217 207.538 251.511C207.615 243.125 210.521 234.937 216.532 226.879C222.509 218.866 230.717 212.786 241.321 208.691C251.895 204.607 262.381 203.572 272.864 205.514C283.297 207.448 290.967 211.831 296.254 218.459C297.685 220.507 300.982 225.054 306.104 232.051C311.319 239.195 315.367 244.379 318.196 247.477C321.415 251.009 326.705 254.287 333.563 257.44L333.563 257.44C340.804 260.768 348.74 262.583 357.327 262.929ZM334.061 305.648L337.793 304.207L336.352 300.475L326.13 274.011L324.689 270.279L320.958 271.721L293.413 282.359L284.633 259.626L283.192 255.894L279.461 257.335L245.781 270.343L242.05 271.784L243.491 275.516L252.271 298.249L223.124 309.506L219.393 310.947L220.834 314.679L231.056 341.143L232.497 344.875L236.228 343.433L265.375 332.176L274.155 354.91L275.596 358.641L279.327 357.2L313.007 344.192L316.738 342.751L315.297 339.019L306.517 316.286L334.061 305.648Z" stroke="#752995" stroke-opacity="0.45" stroke-width="8"/>
</g>
<defs>
<clipPath id="clip0_188_483">
<rect width="405" height="326" fill="white" transform="translate(0 145.916) rotate(-21.1177)"/>
</clipPath>
</defs>
</svg>
